<svg width="128" height="128" viewBox="0 0 128 128" fill="none" xmlns="http://www.w3.org/2000/svg">
<g clip-path="url(#clip0_302_84)">
<path d="M70.265 31.1348V18.5674L36 6V121.884L70.265 109.317V96.7491" stroke="#FEFFFF" stroke-width="3"/>
<path d="M70.6609 71.4007H58.659V92.9789H48.5674V34.905H70.7865C77.2713 34.905 82.4198 36.5932 86.2319 39.9696C90.0524 43.3461 91.9626 47.8117 91.9626 53.3665C91.9626 59.0637 90.0942 63.4916 86.3575 66.6502C82.6208 69.8172 77.3886 71.4007 70.6609 71.4007ZM58.659 43.0361V63.3073H70.7865C74.3724 63.3073 77.108 62.4611 78.9931 60.7687C80.8866 59.0846 81.8333 56.6466 81.8333 53.4544C81.8333 50.3126 80.874 47.8033 78.9553 45.9266C77.0451 44.0582 74.4143 43.0947 71.063 43.0361H58.659Z" fill="#FEFFFF"/>
</g>
<defs>
<clipPath id="clip0_302_84">
<rect width="128" height="128" fill="white"/>
</clipPath>
</defs>
</svg>
